#Comment line ignore any data following # character 
#Hierarchical Translation and Rotation (.htr) file 
[Header]	
#Header keywords are followed by a single value 
FileType HTR		#Single word string
DataType HTRS		#Translation followed by rotation and scale data
FileVersion 1		#integer
NumSegments 84		#integer
NumFrames 2		#integer
DataFrameRate 30		#integer, data frame rate in this file
EulerRotationOrder ZYX
CalibrationUnits mm
RotationUnits Degrees
GlobalAxisofGravity Y
BoneLengthAxis Y
ScaleFactor 1.00
[SegmentNames&Hierarchy]
#CHILD	PARENT
MASTER GLOBAL
root MASTER
chest root
L_mid_tent01 root
R_mid_tent01 root
spine01 root
Bip01_Neck chest
L_humerus chest
R_humerus chest
weapon_bone chest
Bip01_Head Bip01_Neck
eye_left_bone Bip01_Head
eye_right_bone Bip01_Head
L_forearm L_humerus
L_front_hand L_forearm
L_weapon_bone L_forearm
L_front_hand01_01 L_front_hand
L_front_hand02_01 L_front_hand
L_front_hand03_01 L_front_hand
L_front_hand01_02 L_front_hand01_01
L_front_hand02_02 L_front_hand02_01
L_front_hand03_02 L_front_hand03_01
R_forearm R_humerus
R_front_hand R_forearm
R_weapon_bone R_forearm
R_front_hand01_01 R_front_hand
R_front_hand02_01 R_front_hand
R_front_hand03_01 R_front_hand
R_front_hand01_02 R_front_hand01_01
R_front_hand02_02 R_front_hand02_01
R_front_hand03_02 R_front_hand03_01
null_rope01_connect L_mid_tent01
Rope1_Seg01 null_rope01_connect
Rope1_Seg02 Rope1_Seg01
Rope1_Seg03 Rope1_Seg02
Rope1_Seg04 Rope1_Seg03
Rope1_Seg05 Rope1_Seg04
Rope1_Seg06 Rope1_Seg05
Rope1_Seg07 Rope1_Seg06
Rope1_Seg09 Rope1_Seg07
L_mid_hand01 Rope1_Seg09
L_mid_hand02 Rope1_Seg09
L_mid_hand03 Rope1_Seg09
null_rope02_connect R_mid_tent01
Rope2_Seg01 null_rope02_connect
Rope2_Seg02 Rope2_Seg01
Rope2_Seg03 Rope2_Seg02
Rope2_Seg04 Rope2_Seg03
Rope2_Seg05 Rope2_Seg04
Rope2_Seg06 Rope2_Seg05
Rope2_Seg07 Rope2_Seg06
Rope2_Seg09 Rope2_Seg07
R_mid_hand01 Rope2_Seg09
R_mid_hand02 Rope2_Seg09
R_mid_hand03 Rope2_Seg09
spine02 spine01
spine03 spine02
pelvis spine03
null_rope03_connect pelvis
null_rope04_connect pelvis
Rope3_Seg01 null_rope03_connect
Rope3_Seg02 Rope3_Seg01
Rope3_Seg03 Rope3_Seg02
Rope3_Seg04 Rope3_Seg03
Rope3_Seg05 Rope3_Seg04
Rope3_Seg06 Rope3_Seg05
Rope3_Seg07 Rope3_Seg06
Rope3_Seg08 Rope3_Seg07
Rope3_Seg09 Rope3_Seg08
R_rear_hand01 Rope3_Seg09
R_rear_hand02 Rope3_Seg09
R_rear_hand03 Rope3_Seg09
Rope4_Seg01 null_rope04_connect
Rope4_Seg02 Rope4_Seg01
Rope4_Seg03 Rope4_Seg02
Rope4_Seg04 Rope4_Seg03
Rope4_Seg05 Rope4_Seg04
Rope4_Seg06 Rope4_Seg05
Rope4_Seg07 Rope4_Seg06
Rope4_Seg08 Rope4_Seg07
Rope4_Seg09 Rope4_Seg08
L_rear_hand01 Rope4_Seg09
L_rear_hand02 Rope4_Seg09
L_rear_hand03 Rope4_Seg09
[BasePosition]
#SegmentName Tx, Ty, Tz, Rx, Ry, Rz, BoneLength
MASTER 0.000000 0.000000 0.000000 -90.000000 0.000000 0.000000 10.000000 
root 0.000000 0.000000 0.000000 0.000000 0.000000 0.000000 10.000000 
chest 0.000000 0.000000 0.000000 0.000000 0.000000 0.000000 10.000000 
L_mid_tent01 0.000000 0.000000 0.000000 0.000000 0.000000 0.000000 10.000000 
R_mid_tent01 0.000000 0.000000 0.000000 0.000000 0.000000 0.000000 10.000000 
spine01 0.000000 0.000000 0.000000 0.000000 0.000000 0.000000 10.000000 
Bip01_Neck 0.000000 0.000000 0.000000 0.000000 0.000000 0.000000 10.000000 
L_humerus 0.000000 0.000000 0.000000 0.000000 0.000000 0.000000 10.000000 
R_humerus 0.000000 0.000000 0.000000 0.000000 0.000000 0.000000 10.000000 
weapon_bone 0.000000 0.000000 0.000000 0.000000 0.000000 0.000000 10.000000 
Bip01_Head 0.000000 0.000000 0.000000 0.000000 0.000000 0.000000 10.000000 
eye_left_bone 0.000000 0.000000 0.000000 0.000000 0.000000 0.000000 10.000000 
eye_right_bone 0.000000 0.000000 0.000000 0.000000 0.000000 0.000000 10.000000 
L_forearm 0.000000 0.000000 0.000000 0.000000 0.000000 0.000000 10.000000 
L_front_hand 0.000000 0.000000 0.000000 0.000000 0.000000 0.000000 10.000000 
L_weapon_bone 0.000000 0.000000 0.000000 0.000000 0.000000 0.000000 10.000000 
L_front_hand01_01 0.000000 0.000000 0.000000 0.000000 0.000000 0.000000 10.000000 
L_front_hand02_01 0.000000 0.000000 0.000000 0.000000 0.000000 0.000000 10.000000 
L_front_hand03_01 0.000000 0.000000 0.000000 0.000000 0.000000 0.000000 10.000000 
L_front_hand01_02 0.000000 0.000000 0.000000 0.000000 0.000000 0.000000 10.000000 
L_front_hand02_02 0.000000 0.000000 0.000000 0.000000 0.000000 0.000000 10.000000 
L_front_hand03_02 0.000000 0.000000 0.000000 0.000000 0.000000 0.000000 10.000000 
R_forearm 0.000000 0.000000 0.000000 0.000000 0.000000 0.000000 10.000000 
R_front_hand 0.000000 0.000000 0.000000 0.000000 0.000000 0.000000 10.000000 
R_weapon_bone 0.000000 0.000000 0.000000 0.000000 0.000000 0.000000 10.000000 
R_front_hand01_01 0.000000 0.000000 0.000000 0.000000 0.000000 0.000000 10.000000 
R_front_hand02_01 0.000000 0.000000 0.000000 0.000000 0.000000 0.000000 10.000000 
R_front_hand03_01 0.000000 0.000000 0.000000 0.000000 0.000000 0.000000 10.000000 
R_front_hand01_02 0.000000 0.000000 0.000000 0.000000 0.000000 0.000000 10.000000 
R_front_hand02_02 0.000000 0.000000 0.000000 0.000000 0.000000 0.000000 10.000000 
R_front_hand03_02 0.000000 0.000000 0.000000 0.000000 0.000000 0.000000 10.000000 
null_rope01_connect 0.000000 0.000000 0.000000 0.000000 0.000000 0.000000 10.000000 
Rope1_Seg01 0.000000 0.000000 0.000000 0.000000 0.000000 0.000000 10.000000 
Rope1_Seg02 0.000000 0.000000 0.000000 0.000000 0.000000 0.000000 10.000000 
Rope1_Seg03 0.000000 0.000000 0.000000 0.000000 0.000000 0.000000 10.000000 
Rope1_Seg04 0.000000 0.000000 0.000000 0.000000 0.000000 0.000000 10.000000 
Rope1_Seg05 0.000000 0.000000 0.000000 0.000000 0.000000 0.000000 10.000000 
Rope1_Seg06 0.000000 0.000000 0.000000 0.000000 0.000000 0.000000 10.000000 
Rope1_Seg07 0.000000 0.000000 0.000000 0.000000 0.000000 0.000000 10.000000 
Rope1_Seg09 0.000000 0.000000 0.000000 0.000000 0.000000 0.000000 10.000000 
L_mid_hand01 0.000000 0.000000 0.000000 0.000000 0.000000 0.000000 10.000000 
L_mid_hand02 0.000000 0.000000 0.000000 0.000000 0.000000 0.000000 10.000000 
L_mid_hand03 0.000000 0.000000 0.000000 0.000000 0.000000 0.000000 10.000000 
null_rope02_connect 0.000000 0.000000 0.000000 0.000000 0.000000 0.000000 10.000000 
Rope2_Seg01 0.000000 0.000000 0.000000 0.000000 0.000000 0.000000 10.000000 
Rope2_Seg02 0.000000 0.000000 0.000000 0.000000 0.000000 0.000000 10.000000 
Rope2_Seg03 0.000000 0.000000 0.000000 0.000000 0.000000 0.000000 10.000000 
Rope2_Seg04 0.000000 0.000000 0.000000 0.000000 0.000000 0.000000 10.000000 
Rope2_Seg05 0.000000 0.000000 0.000000 0.000000 0.000000 0.000000 10.000000 
Rope2_Seg06 0.000000 0.000000 0.000000 0.000000 0.000000 0.000000 10.000000 
Rope2_Seg07 0.000000 0.000000 0.000000 0.000000 0.000000 0.000000 10.000000 
Rope2_Seg09 0.000000 0.000000 0.000000 0.000000 0.000000 0.000000 10.000000 
R_mid_hand01 0.000000 0.000000 0.000000 0.000000 0.000000 0.000000 10.000000 
R_mid_hand02 0.000000 0.000000 0.000000 0.000000 0.000000 0.000000 10.000000 
R_mid_hand03 0.000000 0.000000 0.000000 0.000000 0.000000 0.000000 10.000000 
spine02 0.000000 0.000000 0.000000 0.000000 0.000000 0.000000 10.000000 
spine03 0.000000 0.000000 0.000000 0.000000 0.000000 0.000000 10.000000 
pelvis 0.000000 0.000000 0.000000 0.000000 0.000000 0.000000 10.000000 
null_rope03_connect 0.000000 0.000000 0.000000 0.000000 0.000000 0.000000 10.000000 
null_rope04_connect 0.000000 0.000000 0.000000 0.000000 0.000000 0.000000 10.000000 
Rope3_Seg01 0.000000 0.000000 0.000000 0.000000 0.000000 0.000000 10.000000 
Rope3_Seg02 0.000000 0.000000 0.000000 0.000000 0.000000 0.000000 10.000000 
Rope3_Seg03 0.000000 0.000000 0.000000 0.000000 0.000000 0.000000 10.000000 
Rope3_Seg04 0.000000 0.000000 0.000000 0.000000 0.000000 0.000000 10.000000 
Rope3_Seg05 0.000000 0.000000 0.000000 0.000000 0.000000 0.000000 10.000000 
Rope3_Seg06 0.000000 0.000000 0.000000 0.000000 0.000000 0.000000 10.000000 
Rope3_Seg07 0.000000 0.000000 0.000000 0.000000 0.000000 0.000000 10.000000 
Rope3_Seg08 0.000000 0.000000 0.000000 0.000000 0.000000 0.000000 10.000000 
Rope3_Seg09 0.000000 0.000000 0.000000 0.000000 0.000000 0.000000 10.000000 
R_rear_hand01 0.000000 0.000000 0.000000 0.000000 0.000000 0.000000 10.000000 
R_rear_hand02 0.000000 0.000000 0.000000 0.000000 0.000000 0.000000 10.000000 
R_rear_hand03 0.000000 0.000000 0.000000 0.000000 0.000000 0.000000 10.000000 
Rope4_Seg01 0.000000 0.000000 0.000000 0.000000 0.000000 0.000000 10.000000 
Rope4_Seg02 0.000000 0.000000 0.000000 0.000000 0.000000 0.000000 10.000000 
Rope4_Seg03 0.000000 0.000000 0.000000 0.000000 0.000000 0.000000 10.000000 
Rope4_Seg04 0.000000 0.000000 0.000000 0.000000 0.000000 0.000000 10.000000 
Rope4_Seg05 0.000000 0.000000 0.000000 0.000000 0.000000 0.000000 10.000000 
Rope4_Seg06 0.000000 0.000000 0.000000 0.000000 0.000000 0.000000 10.000000 
Rope4_Seg07 0.000000 0.000000 0.000000 0.000000 0.000000 0.000000 10.000000 
Rope4_Seg08 0.000000 0.000000 0.000000 0.000000 0.000000 0.000000 10.000000 
Rope4_Seg09 0.000000 0.000000 0.000000 0.000000 0.000000 0.000000 10.000000 
L_rear_hand01 0.000000 0.000000 0.000000 0.000000 0.000000 0.000000 10.000000 
L_rear_hand02 0.000000 0.000000 0.000000 0.000000 0.000000 0.000000 10.000000 
L_rear_hand03 0.000000 0.000000 0.000000 0.000000 0.000000 0.000000 10.000000 
#Beginning of Data. Separated by tabs
#Fr	Tx	Ty	Tz	Rx	Ry	Rz	SF
[MASTER]
11 -0.000324 2163.483887 1672.472168 0.001660 0.001660 0.001660 2734.561279
12 -0.000373 2486.469971 1818.388550 0.001660 0.001660 0.001660 3080.433350
[root]
11 23.469839 -78.814804 1308.662109 -97.245895 -19.619255 -92.337799 1311.243286
12 51.464901 -54.824371 1285.357544 -98.573875 -20.477575 -92.275917 1287.555298
[chest]
11 -84.512650 -34.090519 0.000000 0.618043 0.448161 178.229904 91.129311
12 -84.512650 -34.090519 0.000000 1.262049 0.352372 179.740082 91.129311
[L_mid_tent01]
11 27.299091 22.179216 -249.918701 -0.478570 12.791245 69.451340 252.381699
12 27.299095 22.179226 -249.918701 -1.189963 17.078775 68.416061 252.381699
[R_mid_tent01]
11 23.228794 24.509907 226.238495 170.397308 -23.182980 65.401222 228.744751
12 23.228794 24.509907 226.238495 171.441574 -25.223787 62.099098 228.744751
[spine01]
11 -0.361383 -0.195265 0.000000 0.001956 0.001297 22.897293 0.410763
12 -0.361383 -0.195265 0.000000 0.001957 0.001297 22.934290 0.410763
[Bip01_Neck]
11 165.484543 71.581718 0.000119 176.643677 -1.657967 43.431911 180.302734
12 165.484543 71.581718 0.000119 176.643677 -1.657967 43.431911 180.302734
[L_humerus]
11 -13.983130 -135.272980 -120.471481 151.233490 71.235008 -117.334045 181.680161
12 -13.983130 -135.272980 -120.471481 148.640717 72.739616 -120.044319 181.680161
[R_humerus]
11 -13.983309 -135.273102 125.287651 -170.328339 -64.443230 -94.720238 184.909012
12 -13.983309 -135.273102 125.287651 -170.321167 -65.352394 -94.726501 184.909012
[weapon_bone]
11 235.964890 -300.705902 0.000000 0.000000 -89.951546 -128.212341 382.234833
12 235.964890 -300.705902 0.000000 0.000000 -89.951546 -128.212341 382.234833
[Bip01_Head]
11 213.470139 185.642395 12.720037 4.972492 6.667624 -43.832375 283.186157
12 213.553314 185.411758 15.697137 4.969985 5.749949 -43.857643 283.247131
[eye_left_bone]
11 -24.626970 125.451866 -64.772606 0.000000 -90.000000 -99.840431 143.318359
12 -24.626970 125.451866 -64.772606 0.000000 -90.000000 -99.840431 143.318359
[eye_right_bone]
11 -24.626970 125.451866 64.327362 0.000000 -89.965736 80.156380 143.117676
12 -24.626970 125.451866 64.327362 0.000000 -89.965736 80.156380 143.117676
[L_forearm]
11 322.776093 0.000000 -0.000119 0.000128 -0.002344 -96.273170 322.776093
12 322.776093 0.000000 -0.000119 0.000132 -0.002343 -96.465614 322.776093
[L_front_hand]
11 241.149185 -0.042021 -3.300071 -177.746429 -1.834847 -27.425331 241.171753
12 241.149185 -0.042021 -3.300071 -177.417923 -1.835044 -27.425003 241.171753
[L_weapon_bone]
11 156.183838 0.000000 0.000000 0.000014 0.000007 0.000001 156.183838
12 156.183838 0.000000 0.000000 0.000014 0.000007 0.000001 156.183838
[L_front_hand01_01]
11 86.095154 20.947098 -0.655860 -0.340755 -0.496208 72.096481 88.609184
12 86.095154 20.947098 -0.655860 -0.322964 -0.505554 70.186295 88.609184
[L_front_hand02_01]
11 86.935165 -11.437475 24.513514 149.544266 -58.335350 -55.710854 91.046425
12 86.935165 -11.437475 24.513514 146.960190 -57.330456 -52.657890 91.046425
[L_front_hand03_01]
11 86.637497 -14.123976 -20.424902 -149.397461 56.551064 -57.336918 90.126129
12 86.637497 -14.123976 -20.424902 -146.989075 55.546074 -54.434807 90.126129
[L_front_hand01_02]
11 71.020905 -0.000179 0.000030 0.000317 -0.002326 -105.506187 71.020905
12 71.020905 -0.000179 0.000030 0.000316 -0.002326 -105.475128 71.020905
[L_front_hand02_02]
11 71.020927 -0.000119 0.000060 0.000317 -0.002326 -105.506187 71.020927
12 71.020927 -0.000119 0.000060 0.000316 -0.002326 -105.475128 71.020927
[L_front_hand03_02]
11 71.020905 -0.000060 0.000060 0.000317 -0.002326 -105.506187 71.020905
12 71.020905 -0.000060 0.000060 0.000316 -0.002326 -105.475128 71.020905
[R_forearm]
11 322.776428 -0.000060 0.000030 0.212797 0.017088 -94.810211 322.776428
12 322.776428 -0.000060 0.000030 0.212768 0.017449 -95.004883 322.776428
[R_front_hand]
11 238.847015 -0.006795 2.210259 2.634071 -10.643227 -26.313591 238.857239
12 238.847015 -0.006795 2.210259 4.476148 -10.646636 -26.315018 238.857239
[R_weapon_bone]
11 155.664093 0.002503 -0.000030 0.003487 0.001180 -90.988930 155.664078
12 155.664093 0.002503 -0.000030 0.003487 0.001180 -90.988930 155.664078
[R_front_hand01_01]
11 87.624611 14.231146 22.918642 -149.707169 -58.394505 56.007458 91.683487
12 87.624611 14.231146 22.918642 -146.976166 -57.336147 52.779388 91.683487
[R_front_hand02_01]
11 89.356956 14.367283 -19.491137 149.983444 56.758789 58.275921 92.579636
12 89.356956 14.367283 -19.491137 147.400665 55.711205 55.166904 92.579636
[R_front_hand03_01]
11 87.286232 -22.307278 -0.143439 0.134949 -0.432464 -72.452232 90.091743
12 87.286232 -22.307278 -0.143439 0.123256 -0.437630 -70.429710 90.091743
[R_front_hand01_02]
11 71.020905 0.000060 0.000119 0.002323 -0.000334 106.381721 71.020905
12 71.020905 0.000060 0.000119 0.002323 -0.000334 106.381714 71.020905
[R_front_hand02_02]
11 71.020844 -0.000030 -0.000119 0.002323 -0.000334 106.381721 71.020836
12 71.020844 -0.000030 -0.000119 0.002323 -0.000334 106.381714 71.020836
[R_front_hand03_02]
11 71.020905 0.000000 0.000030 0.002323 -0.000334 106.381721 71.020905
12 71.020905 0.000000 0.000030 0.002323 -0.000334 106.381714 71.020905
[null_rope01_connect]
11 328.732483 0.000000 -0.000238 -143.281494 -68.884338 -176.695892 328.732483
12 328.732483 0.000000 -0.000238 -143.758545 -63.301006 -174.399780 328.732483
[Rope1_Seg01]
11 0.000038 -0.000174 0.000116 -93.523712 54.229420 -97.662376 0.000213
12 0.000038 -0.000188 0.000113 -75.954643 39.969265 -98.588722 0.000222
[Rope1_Seg02]
11 139.999863 -0.000179 0.000000 -11.500525 4.861922 7.822578 139.999863
12 139.999863 -0.000179 0.000000 -29.075996 10.928502 10.127756 139.999863
[Rope1_Seg03]
11 139.999924 0.000060 -0.000060 -16.104959 9.055810 12.357960 139.999924
12 139.999924 0.000060 -0.000060 -26.399250 11.250961 15.991865 139.999924
[Rope1_Seg04]
11 139.999924 -0.000060 -0.000119 -13.811926 6.613464 21.745159 139.999924
12 139.999924 -0.000060 -0.000119 -11.137812 0.496128 17.412941 139.999924
[Rope1_Seg05]
11 139.999832 0.000119 -0.000060 9.009640 -37.641766 0.273788 139.999832
12 139.999832 0.000119 -0.000060 11.937110 -31.618015 -0.780455 139.999832
[Rope1_Seg06]
11 139.999954 0.000119 -0.000060 -0.163390 -12.788679 1.428410 139.999954
12 139.999954 0.000119 -0.000060 1.651459 -18.698870 1.915465 139.999954
[Rope1_Seg07]
11 139.999985 0.000060 0.000000 -0.361620 -4.610528 1.154672 139.999985
12 139.999985 0.000060 0.000000 -0.155901 -6.384892 1.758971 139.999985
[Rope1_Seg09]
11 121.602913 0.000119 -0.000089 -89.793175 -1.359789 0.847147 121.602913
12 121.602913 0.000119 -0.000089 -89.793175 -1.359789 0.847147 121.602913
[L_mid_hand01]
11 103.859421 1.038730 8.195221 115.405022 -54.702576 -21.718946 104.187431
12 103.859421 1.038730 8.195221 112.987701 -50.601227 -18.681456 104.187431
[L_mid_hand02]
11 105.572853 -4.139662 -10.864139 -156.173538 38.796768 -54.226353 106.211075
12 105.572853 -4.139662 -10.864139 -153.018723 36.866009 -49.082401 106.211075
[L_mid_hand03]
11 104.641464 17.579376 -3.913581 -10.557028 15.605442 59.191399 106.179977
12 104.641464 17.579376 -3.913581 -11.755013 14.733717 54.618225 106.179977
[null_rope02_connect]
11 328.732849 0.000179 -0.000119 -99.462677 71.519455 35.458553 328.732849
12 328.732849 0.000179 -0.000119 -97.018921 70.651749 34.101204 328.732849
[Rope2_Seg01]
11 0.000047 0.000116 0.000000 93.297859 10.487048 -69.466240 0.000125
12 0.000048 0.000113 0.000000 72.702705 -4.899096 -70.534698 0.000122
[Rope2_Seg02]
11 139.999741 -0.000060 -0.000119 119.933205 25.909119 -21.642635 139.999756
12 139.999741 -0.000060 -0.000119 -127.325066 33.809414 -16.116776 139.999756
[Rope2_Seg03]
11 140.000107 0.000030 0.000000 32.485889 -14.949336 -6.925618 140.000107
12 140.000107 0.000030 0.000000 -53.240623 -3.760377 20.778275 140.000107
[Rope2_Seg04]
11 139.999802 0.000000 -0.000060 3.290122 -5.638593 0.602474 139.999802
12 139.999802 0.000000 -0.000060 -0.631837 -6.020473 3.001824 139.999802
[Rope2_Seg05]
11 139.999985 -0.000060 0.000119 -1.479635 -6.849461 4.040084 139.999985
12 139.999985 -0.000060 0.000119 -0.958694 -5.921190 3.241045 139.999985
[Rope2_Seg06]
11 139.999893 -0.000030 -0.000119 -12.258407 -32.505123 26.690596 139.999893
12 139.999893 -0.000030 -0.000119 -3.801820 -20.684036 12.046966 139.999893
[Rope2_Seg07]
11 139.999893 0.000060 -0.000060 -13.352957 -44.935265 35.926575 139.999893
12 139.999893 0.000060 -0.000060 -19.149296 -50.598030 39.084225 139.999893
[Rope2_Seg09]
11 121.338966 0.000089 -0.000060 33.793236 -1.359788 -0.847141 121.338966
12 121.338966 0.000089 -0.000060 33.793236 -1.359788 -0.847141 121.338966
[R_mid_hand01]
11 104.680779 11.144459 -10.335981 -22.984863 42.734234 60.718655 105.778534
12 104.680779 11.144459 -10.335981 -25.192726 41.648338 57.439434 105.778534
[R_mid_hand02]
11 104.070427 2.443552 8.231699 58.419525 -61.729706 28.969120 104.424065
12 104.070427 2.443552 8.231699 60.800945 -59.436069 26.232430 104.424065
[R_mid_hand03]
11 106.028137 -11.221827 -5.996406 -175.069138 15.041784 -68.893349 106.788818
12 106.028137 -11.221827 -5.996406 -174.361145 14.799507 -66.152634 106.788818
[spine02]
11 129.756927 0.001550 0.000119 -0.976445 -3.939133 6.100341 129.756927
12 129.756927 0.001550 0.000119 -0.957077 -3.946971 5.817288 129.756927
[spine03]
11 78.614029 0.081714 -4.898996 1.070586 4.137025 4.634354 78.766563
12 78.614021 0.081707 -4.898996 1.081804 4.135192 4.808106 78.766556
[pelvis]
11 169.435242 0.051022 0.000000 0.018108 -0.190373 -9.872290 169.435257
12 169.435242 0.051022 0.000000 0.017522 -0.190428 -9.519883 169.435257
[null_rope03_connect]
11 -1.257226 -2.466202 137.391083 -145.861099 -81.446426 -128.348297 137.418976
12 -1.257226 -2.466202 137.391083 -147.339081 -80.178413 -126.304764 137.418976
[null_rope04_connect]
11 -1.259640 -2.480268 -137.844437 -145.861099 -81.446426 -128.348297 137.872513
12 -1.259640 -2.480268 -137.844437 -147.339081 -80.178413 -126.304764 137.872513
[Rope3_Seg01]
11 0.000058 -0.000174 0.000000 -119.525688 -62.246132 -100.374695 0.000184
12 0.000056 -0.000188 0.000000 -122.517090 -60.340263 -96.730072 0.000196
[Rope3_Seg02]
11 139.999924 -0.000119 0.000060 7.941242 -22.879065 -22.967892 139.999924
12 139.999924 -0.000119 0.000060 10.243414 -25.679258 -24.654404 139.999924
[Rope3_Seg03]
11 139.999924 -0.000119 0.000119 18.225103 -22.230803 -13.595592 139.999924
12 139.999924 -0.000119 0.000119 22.127987 -23.238586 -12.077820 139.999924
[Rope3_Seg04]
11 139.999924 0.000119 0.000000 22.139029 -13.908914 1.024078 139.999924
12 139.999924 0.000119 0.000000 20.159342 -11.770239 2.270682 139.999924
[Rope3_Seg05]
11 139.999924 -0.000238 0.000060 3.676785 -4.522648 -4.249730 139.999924
12 139.999924 -0.000238 0.000060 5.733164 -5.320021 -3.894197 139.999924
[Rope3_Seg06]
11 139.999893 -0.000119 -0.000060 -36.912045 -4.637935 -16.620455 139.999893
12 139.999893 -0.000119 -0.000060 -4.750916 -8.827529 -14.777893 139.999893
[Rope3_Seg07]
11 139.999771 0.000060 -0.000119 -112.003494 16.781620 -36.302788 139.999771
12 139.999771 0.000060 -0.000119 -159.978912 -12.556102 -35.930889 139.999771
[Rope3_Seg08]
11 139.999985 -0.000060 0.000000 -2.533178 13.994614 11.714237 139.999985
12 139.999985 -0.000060 0.000000 -0.077509 11.545970 13.611338 139.999985
[Rope3_Seg09]
11 90.185997 -0.000179 -0.000060 89.793228 -1.359877 -0.847183 90.185997
12 90.185997 -0.000179 -0.000060 89.793228 -1.359877 -0.847183 90.185997
[R_rear_hand01]
11 103.366196 -6.073594 -10.757982 -173.599045 23.870514 -63.902164 104.101845
12 103.366196 -6.073594 -10.757982 -172.199188 23.472191 -60.427750 104.101845
[R_rear_hand02]
11 100.509819 12.039542 -7.992327 -19.192892 34.332623 61.336498 101.543350
12 100.509819 12.039542 -7.992327 -21.205954 33.223911 57.720810 101.543350
[R_rear_hand03]
11 101.539970 5.215704 5.435467 77.403587 -62.983585 15.125125 101.819031
12 101.539970 5.215704 5.435467 78.624985 -59.850563 13.735100 101.819031
[Rope4_Seg01]
11 -0.000010 -0.000116 -0.000116 50.092621 -42.606350 -97.688995 0.000165
12 -0.000010 -0.000132 -0.000113 45.719406 -37.125420 -91.291405 0.000174
[Rope4_Seg02]
11 139.999985 0.000060 0.000119 4.427320 -26.497046 4.294411 139.999985
12 139.999985 0.000060 0.000119 2.884654 -28.731106 4.724034 139.999985
[Rope4_Seg03]
11 139.999924 0.000000 -0.000238 7.679635 -15.425644 4.995109 139.999924
12 139.999924 0.000000 -0.000238 9.597933 -21.352909 7.135523 139.999924
[Rope4_Seg04]
11 139.999985 0.000000 0.000119 6.199944 -7.920353 3.435351 139.999985
12 139.999985 0.000000 0.000119 7.304555 -8.574033 4.553858 139.999985
[Rope4_Seg05]
11 139.999802 -0.000060 -0.000119 46.048786 -35.001469 17.879015 139.999802
12 139.999802 -0.000060 -0.000119 34.054779 -27.548920 12.235105 139.999802
[Rope4_Seg06]
11 139.999924 0.000000 0.000060 39.489647 -12.661276 57.292351 139.999924
12 139.999924 0.000000 0.000060 47.793793 -26.919025 53.806698 139.999924
[Rope4_Seg07]
11 139.999802 0.000000 0.000000 2.786742 6.611380 10.712723 139.999802
12 139.999802 0.000000 0.000000 4.809702 7.638777 13.204137 139.999802
[Rope4_Seg08]
11 139.999924 0.000000 0.000119 -0.950724 2.667465 3.952922 139.999924
12 139.999924 0.000000 0.000119 -0.549789 3.092443 4.515000 139.999924
[Rope4_Seg09]
11 90.185791 0.000060 0.000060 -135.617828 2.228885 0.850567 90.185791
12 90.185791 0.000060 0.000060 -135.617828 2.228885 0.850567 90.185791
[L_rear_hand01]
11 101.696655 -8.392275 -7.654577 -28.953402 -26.963970 137.645660 102.329041
12 101.696655 -8.392275 -7.654577 -30.967802 -24.555588 142.276382 102.329041
[L_rear_hand02]
11 102.726799 -1.568258 5.773216 81.888351 45.378387 170.342453 102.900848
12 102.726799 -1.568258 5.773216 82.497200 40.606583 171.238342 102.900848
[L_rear_hand03]
11 104.552910 9.721220 -10.420293 -166.314163 -20.719036 -135.138702 105.519653
12 104.552910 9.721220 -10.420293 -164.603775 -19.511108 -140.104065 105.519653
